# xmcd
#
# Track frame offsets:
#	150
#	18206
#	32569
#	45941
#	66341
#	79483
#	95267
#	109182
#	121341
#	136344
#	153218
#	165120
#	180558
#	197241
#
# Disc length: 2796 seconds
# Revision: 0
# Processed by: cddbd v1.5.2PL0 Copyright (c) Steve Scherf et al.
# Submitted via: dBpowerAMP V12.0
#
DISCID=a70aea0e
DTITLE=Wesley Dennis - Country Enough
DYEAR=2012
DGENRE=Country
TTITLE0=A Month Of Sundays
TTITLE1=That Dog Won't Hurt
TTITLE2=You
TTITLE3=Country Enough
TTITLE4=Lovin' On Back Streets
TTITLE5=Ring That Belle
TTITLE6=When The Tingle Becomes A Chill
TTITLE7=Final Touches
TTITLE8=Brotherly Love
TTITLE9=Sun, Surf And The Sand (And My Ties)
TTITLE10=Lady's Choice
TTITLE11=I Don't Know (But I've Been Told)
TTITLE12=Don't Make Me Feel At Home
TTITLE13=Who's Countin'
EXTD=
EXTT0=
EXTT1=
EXTT2=
EXTT3=
EXTT4=
EXTT5=
EXTT6=
EXTT7=
EXTT8=
EXTT9=
EXTT10=
EXTT11=
EXTT12=
EXTT13=
PLAYORDER=
